<svg width="105" height="23" viewBox="0 0 105 23" fill="none" xmlns="http://www.w3.org/2000/svg">
<path d="M0.523438 18V0.9375H6.5C8.57031 0.9375 10.1406 1.33594 11.2109 2.13281C12.2812 2.92188 12.8164 4.08203 12.8164 5.61328C12.8164 6.44922 12.6016 7.1875 12.1719 7.82812C11.7422 8.46094 11.1445 8.92578 10.3789 9.22266C11.2539 9.44141 11.9414 9.88281 12.4414 10.5469C12.9492 11.2109 13.2031 12.0234 13.2031 12.9844C13.2031 14.625 12.6797 15.8672 11.6328 16.7109C10.5859 17.5547 9.09375 17.9844 7.15625 18H0.523438ZM4.03906 10.5703V15.1758H7.05078C7.87891 15.1758 8.52344 14.9805 8.98438 14.5898C9.45312 14.1914 9.6875 13.6445 9.6875 12.9492C9.6875 11.3867 8.87891 10.5938 7.26172 10.5703H4.03906ZM4.03906 8.08594H6.64062C8.41406 8.05469 9.30078 7.34766 9.30078 5.96484C9.30078 5.19141 9.07422 4.63672 8.62109 4.30078C8.17578 3.95703 7.46875 3.78516 6.5 3.78516H4.03906V8.08594Z" fill="white" fill-opacity="0.94"/>
<path d="M15.1016 11.543C15.1016 10.2852 15.3438 9.16406 15.8281 8.17969C16.3125 7.19531 17.0078 6.43359 17.9141 5.89453C18.8281 5.35547 19.8867 5.08594 21.0898 5.08594C22.8008 5.08594 24.1953 5.60938 25.2734 6.65625C26.3594 7.70312 26.9648 9.125 27.0898 10.9219L27.1133 11.7891C27.1133 13.7344 26.5703 15.2969 25.4844 16.4766C24.3984 17.6484 22.9414 18.2344 21.1133 18.2344C19.2852 18.2344 17.8242 17.6484 16.7305 16.4766C15.6445 15.3047 15.1016 13.7109 15.1016 11.6953V11.543ZM18.4883 11.7891C18.4883 12.9922 18.7148 13.9141 19.168 14.5547C19.6211 15.1875 20.2695 15.5039 21.1133 15.5039C21.9336 15.5039 22.5742 15.1914 23.0352 14.5664C23.4961 13.9336 23.7266 12.9258 23.7266 11.543C23.7266 10.3633 23.4961 9.44922 23.0352 8.80078C22.5742 8.15234 21.9258 7.82812 21.0898 7.82812C20.2617 7.82812 19.6211 8.15234 19.168 8.80078C18.7148 9.44141 18.4883 10.4375 18.4883 11.7891Z" fill="white" fill-opacity="0.94"/>
<path d="M28.6719 11.543C28.6719 10.2852 28.9141 9.16406 29.3984 8.17969C29.8828 7.19531 30.5781 6.43359 31.4844 5.89453C32.3984 5.35547 33.457 5.08594 34.6602 5.08594C36.3711 5.08594 37.7656 5.60938 38.8438 6.65625C39.9297 7.70312 40.5352 9.125 40.6602 10.9219L40.6836 11.7891C40.6836 13.7344 40.1406 15.2969 39.0547 16.4766C37.9688 17.6484 36.5117 18.2344 34.6836 18.2344C32.8555 18.2344 31.3945 17.6484 30.3008 16.4766C29.2148 15.3047 28.6719 13.7109 28.6719 11.6953V11.543ZM32.0586 11.7891C32.0586 12.9922 32.2852 13.9141 32.7383 14.5547C33.1914 15.1875 33.8398 15.5039 34.6836 15.5039C35.5039 15.5039 36.1445 15.1914 36.6055 14.5664C37.0664 13.9336 37.2969 12.9258 37.2969 11.543C37.2969 10.3633 37.0664 9.44922 36.6055 8.80078C36.1445 8.15234 35.4961 7.82812 34.6602 7.82812C33.832 7.82812 33.1914 8.15234 32.7383 8.80078C32.2852 9.44141 32.0586 10.4375 32.0586 11.7891Z" fill="white" fill-opacity="0.94"/>
<path d="M46.8242 2.20312V5.32031H48.9922V7.80469H46.8242V14.1328C46.8242 14.6016 46.9141 14.9375 47.0938 15.1406C47.2734 15.3438 47.6172 15.4453 48.125 15.4453C48.5 15.4453 48.832 15.418 49.1211 15.3633V17.9297C48.457 18.1328 47.7734 18.2344 47.0703 18.2344C44.6953 18.2344 43.4844 17.0352 43.4375 14.6367V7.80469H41.5859V5.32031H43.4375V2.20312H46.8242Z" fill="white" fill-opacity="0.94"/>
<path d="M57.7461 14.4961C57.7461 14.082 57.5391 13.7578 57.125 13.5234C56.7188 13.2812 56.0625 13.0664 55.1562 12.8789C52.1406 12.2461 50.6328 10.9648 50.6328 9.03516C50.6328 7.91016 51.0977 6.97266 52.0273 6.22266C52.9648 5.46484 54.1875 5.08594 55.6953 5.08594C57.3047 5.08594 58.5898 5.46484 59.5508 6.22266C60.5195 6.98047 61.0039 7.96484 61.0039 9.17578H57.6172C57.6172 8.69141 57.4609 8.29297 57.1484 7.98047C56.8359 7.66016 56.3477 7.5 55.6836 7.5C55.1133 7.5 54.6719 7.62891 54.3594 7.88672C54.0469 8.14453 53.8906 8.47266 53.8906 8.87109C53.8906 9.24609 54.0664 9.55078 54.418 9.78516C54.7773 10.0117 55.3789 10.2109 56.2227 10.3828C57.0664 10.5469 57.7773 10.7344 58.3555 10.9453C60.1445 11.6016 61.0391 12.7383 61.0391 14.3555C61.0391 15.5117 60.543 16.4492 59.5508 17.168C58.5586 17.8789 57.2773 18.2344 55.707 18.2344C54.6445 18.2344 53.6992 18.0469 52.8711 17.6719C52.0508 17.2891 51.4062 16.7695 50.9375 16.1133C50.4688 15.4492 50.2344 14.7344 50.2344 13.9688H53.4453C53.4766 14.5703 53.6992 15.0312 54.1133 15.3516C54.5273 15.6719 55.082 15.832 55.7773 15.832C56.4258 15.832 56.9141 15.7109 57.2422 15.4688C57.5781 15.2188 57.7461 14.8945 57.7461 14.4961Z" fill="white" fill-opacity="0.94"/>
<path d="M67.2852 2.20312V5.32031H69.4531V7.80469H67.2852V14.1328C67.2852 14.6016 67.375 14.9375 67.5547 15.1406C67.7344 15.3438 68.0781 15.4453 68.5859 15.4453C68.9609 15.4453 69.293 15.418 69.582 15.3633V17.9297C68.918 18.1328 68.2344 18.2344 67.5312 18.2344C65.1562 18.2344 63.9453 17.0352 63.8984 14.6367V7.80469H62.0469V5.32031H63.8984V2.20312H67.2852Z" fill="white" fill-opacity="0.94"/>
<path d="M78.4648 8.49609C78.0039 8.43359 77.5977 8.40234 77.2461 8.40234C75.9648 8.40234 75.125 8.83594 74.7266 9.70312V18H71.3398V5.32031H74.5391L74.6328 6.83203C75.3125 5.66797 76.2539 5.08594 77.457 5.08594C77.832 5.08594 78.1836 5.13672 78.5117 5.23828L78.4648 8.49609Z" fill="white" fill-opacity="0.94"/>
<path d="M87.1016 18C86.9453 17.6953 86.832 17.3164 86.7617 16.8633C85.9414 17.7773 84.875 18.2344 83.5625 18.2344C82.3203 18.2344 81.2891 17.875 80.4688 17.1562C79.6562 16.4375 79.25 15.5312 79.25 14.4375C79.25 13.0938 79.7461 12.0625 80.7383 11.3438C81.7383 10.625 83.1797 10.2617 85.0625 10.2539H86.6211V9.52734C86.6211 8.94141 86.4688 8.47266 86.1641 8.12109C85.8672 7.76953 85.3945 7.59375 84.7461 7.59375C84.1758 7.59375 83.7266 7.73047 83.3984 8.00391C83.0781 8.27734 82.918 8.65234 82.918 9.12891H79.5312C79.5312 8.39453 79.7578 7.71484 80.2109 7.08984C80.6641 6.46484 81.3047 5.97656 82.1328 5.625C82.9609 5.26562 83.8906 5.08594 84.9219 5.08594C86.4844 5.08594 87.7227 5.48047 88.6367 6.26953C89.5586 7.05078 90.0195 8.15234 90.0195 9.57422V15.0703C90.0273 16.2734 90.1953 17.1836 90.5234 17.8008V18H87.1016ZM84.3008 15.6445C84.8008 15.6445 85.2617 15.5352 85.6836 15.3164C86.1055 15.0898 86.418 14.7891 86.6211 14.4141V12.2344H85.3555C83.6602 12.2344 82.7578 12.8203 82.6484 13.9922L82.6367 14.1914C82.6367 14.6133 82.7852 14.9609 83.082 15.2344C83.3789 15.5078 83.7852 15.6445 84.3008 15.6445Z" fill="white" fill-opacity="0.94"/>
<path d="M104.035 11.7773C104.035 13.7305 103.59 15.2969 102.699 16.4766C101.816 17.6484 100.621 18.2344 99.1133 18.2344C97.832 18.2344 96.7969 17.7891 96.0078 16.8984V22.875H92.6211V5.32031H95.7617L95.8789 6.5625C96.6992 5.57812 97.7695 5.08594 99.0898 5.08594C100.652 5.08594 101.867 5.66406 102.734 6.82031C103.602 7.97656 104.035 9.57031 104.035 11.6016V11.7773ZM100.648 11.5312C100.648 10.3516 100.438 9.44141 100.016 8.80078C99.6016 8.16016 98.9961 7.83984 98.1992 7.83984C97.1367 7.83984 96.4062 8.24609 96.0078 9.05859V14.25C96.4219 15.0859 97.1602 15.5039 98.2227 15.5039C99.8398 15.5039 100.648 14.1797 100.648 11.5312Z" fill="white" fill-opacity="0.94"/>
</svg>
